<mxfile host="app.diagrams.net" agent="Mozilla/5.0 (Windows NT 10.0; Win64; x64) AppleWebKit/537.36 (KHTML, like Gecko) Chrome/134.0.0.0 Safari/537.36" version="26.1.0">
  <diagram name="PÃ¡gina-1" id="Q9yuTl_T9oGPcnxQe0Eb">
    <mxGraphModel dx="1434" dy="780" grid="1" gridSize="10" guides="1" tooltips="1" connect="1" arrows="1" fold="1" page="1" pageScale="1" pageWidth="827" pageHeight="1169" math="0" shadow="0">
      <root>
        <mxCell id="0" />
        <mxCell id="1" parent="0" />
        <mxCell id="gt-ZIKND5rcvb39BB-b6-108" value="user" style="swimlane;fontStyle=1;align=center;verticalAlign=top;childLayout=stackLayout;horizontal=1;startSize=26;horizontalStack=0;resizeParent=1;resizeParentMax=0;resizeLast=0;collapsible=1;marginBottom=0;whiteSpace=wrap;html=1;rotation=0;arcSize=10;" vertex="1" parent="1">
          <mxGeometry x="670" y="10" width="130" height="220" as="geometry" />
        </mxCell>
        <mxCell id="gt-ZIKND5rcvb39BB-b6-109" value="&lt;div&gt;&lt;div&gt;&lt;div&gt;-first name:string&lt;/div&gt;&lt;div&gt;-last name:string&lt;/div&gt;&lt;div&gt;-email:string&lt;/div&gt;&lt;div&gt;-password:string&lt;/div&gt;&lt;/div&gt;&lt;/div&gt;&lt;div&gt;- id: int&lt;/div&gt;" style="text;strokeColor=none;fillColor=none;align=left;verticalAlign=top;spacingLeft=4;spacingRight=4;overflow=hidden;rotatable=0;points=[[0,0.5],[1,0.5]];portConstraint=eastwest;whiteSpace=wrap;html=1;rotation=0;" vertex="1" parent="gt-ZIKND5rcvb39BB-b6-108">
          <mxGeometry y="26" width="130" height="94" as="geometry" />
        </mxCell>
        <mxCell id="gt-ZIKND5rcvb39BB-b6-110" value="" style="line;strokeWidth=1;fillColor=none;align=left;verticalAlign=middle;spacingTop=-1;spacingLeft=3;spacingRight=3;rotatable=0;labelPosition=right;points=[];portConstraint=eastwest;strokeColor=inherit;rotation=0;" vertex="1" parent="gt-ZIKND5rcvb39BB-b6-108">
          <mxGeometry y="120" width="130" height="8" as="geometry" />
        </mxCell>
        <mxCell id="gt-ZIKND5rcvb39BB-b6-111" value="&lt;div&gt;&lt;div&gt;+login()&lt;/div&gt;&lt;div&gt;+logout()&lt;/div&gt;&lt;div&gt;+createUser()&lt;/div&gt;&lt;div&gt;+deleteUser()&lt;/div&gt;&lt;div&gt;+updateUser()&lt;/div&gt;&lt;/div&gt;" style="text;strokeColor=none;fillColor=none;align=left;verticalAlign=top;spacingLeft=4;spacingRight=4;overflow=hidden;rotatable=0;points=[[0,0.5],[1,0.5]];portConstraint=eastwest;whiteSpace=wrap;html=1;rotation=0;" vertex="1" parent="gt-ZIKND5rcvb39BB-b6-108">
          <mxGeometry y="128" width="130" height="92" as="geometry" />
        </mxCell>
        <mxCell id="gt-ZIKND5rcvb39BB-b6-112" value="administrator" style="swimlane;fontStyle=1;align=center;verticalAlign=top;childLayout=stackLayout;horizontal=1;startSize=26;horizontalStack=0;resizeParent=1;resizeParentMax=0;resizeLast=0;collapsible=1;marginBottom=0;whiteSpace=wrap;html=1;rotation=0;arcSize=10;" vertex="1" parent="1">
          <mxGeometry x="260" y="200" width="140" height="220" as="geometry" />
        </mxCell>
        <mxCell id="gt-ZIKND5rcvb39BB-b6-113" value="&lt;div&gt;&lt;div&gt;&lt;br&gt;&lt;/div&gt;&lt;/div&gt;" style="text;strokeColor=none;fillColor=none;align=left;verticalAlign=top;spacingLeft=4;spacingRight=4;overflow=hidden;rotatable=0;points=[[0,0.5],[1,0.5]];portConstraint=eastwest;whiteSpace=wrap;html=1;rotation=0;" vertex="1" parent="gt-ZIKND5rcvb39BB-b6-112">
          <mxGeometry y="26" width="140" height="24" as="geometry" />
        </mxCell>
        <mxCell id="gt-ZIKND5rcvb39BB-b6-114" value="" style="line;strokeWidth=1;fillColor=none;align=left;verticalAlign=middle;spacingTop=-1;spacingLeft=3;spacingRight=3;rotatable=0;labelPosition=right;points=[];portConstraint=eastwest;strokeColor=inherit;rotation=0;" vertex="1" parent="gt-ZIKND5rcvb39BB-b6-112">
          <mxGeometry y="50" width="140" height="8" as="geometry" />
        </mxCell>
        <mxCell id="gt-ZIKND5rcvb39BB-b6-115" value="&lt;div&gt;&lt;div&gt;+ createTeacher()&lt;/div&gt;&lt;div&gt;+ updateTeacher()&lt;/div&gt;&lt;div&gt;+ deleteTeacher()&lt;/div&gt;&lt;div&gt;+ createCourse()&lt;/div&gt;&lt;div&gt;+ updateCourse()&lt;/div&gt;&lt;div&gt;+ deleteCourse()&lt;/div&gt;&lt;div&gt;+ manageStudents()&lt;/div&gt;&lt;div&gt;+ manageTeachers()&lt;/div&gt;&lt;div&gt;+ startSession()&lt;/div&gt;&lt;div&gt;+ closeSession()&lt;/div&gt;&lt;/div&gt;" style="text;strokeColor=none;fillColor=none;align=left;verticalAlign=top;spacingLeft=4;spacingRight=4;overflow=hidden;rotatable=0;points=[[0,0.5],[1,0.5]];portConstraint=eastwest;whiteSpace=wrap;html=1;rotation=0;" vertex="1" parent="gt-ZIKND5rcvb39BB-b6-112">
          <mxGeometry y="58" width="140" height="162" as="geometry" />
        </mxCell>
        <mxCell id="gt-ZIKND5rcvb39BB-b6-116" value="teacher" style="swimlane;fontStyle=1;align=center;verticalAlign=top;childLayout=stackLayout;horizontal=1;startSize=26;horizontalStack=0;resizeParent=1;resizeParentMax=0;resizeLast=0;collapsible=1;marginBottom=0;whiteSpace=wrap;html=1;rotation=0;arcSize=10;" vertex="1" parent="1">
          <mxGeometry x="1130" y="210" width="140" height="210" as="geometry" />
        </mxCell>
        <mxCell id="gt-ZIKND5rcvb39BB-b6-117" value="&lt;br&gt;&lt;div&gt;&lt;div&gt;&lt;br&gt;&lt;/div&gt;&lt;/div&gt;" style="text;strokeColor=none;fillColor=none;align=left;verticalAlign=top;spacingLeft=4;spacingRight=4;overflow=hidden;rotatable=0;points=[[0,0.5],[1,0.5]];portConstraint=eastwest;whiteSpace=wrap;html=1;rotation=0;" vertex="1" parent="gt-ZIKND5rcvb39BB-b6-116">
          <mxGeometry y="26" width="140" height="24" as="geometry" />
        </mxCell>
        <mxCell id="gt-ZIKND5rcvb39BB-b6-118" value="" style="line;strokeWidth=1;fillColor=none;align=left;verticalAlign=middle;spacingTop=-1;spacingLeft=3;spacingRight=3;rotatable=0;labelPosition=right;points=[];portConstraint=eastwest;strokeColor=inherit;rotation=0;" vertex="1" parent="gt-ZIKND5rcvb39BB-b6-116">
          <mxGeometry y="50" width="140" height="8" as="geometry" />
        </mxCell>
        <mxCell id="gt-ZIKND5rcvb39BB-b6-119" value="&lt;div&gt;+ registerIn()&lt;/div&gt;&lt;div&gt;+ registerOut()&lt;/div&gt;&lt;div&gt;+ searchAttendance()&lt;/div&gt;&lt;div&gt;+ downloadReport()&lt;/div&gt;&lt;div&gt;+ createTeacher()&lt;/div&gt;&lt;div&gt;+ updateTeacher()&lt;/div&gt;&lt;div&gt;+ deleteTeacher()&lt;/div&gt;&lt;div&gt;+ startSession()&lt;/div&gt;&lt;div&gt;+ closeSession()&lt;/div&gt;" style="text;strokeColor=none;fillColor=none;align=left;verticalAlign=top;spacingLeft=4;spacingRight=4;overflow=hidden;rotatable=0;points=[[0,0.5],[1,0.5]];portConstraint=eastwest;whiteSpace=wrap;html=1;rotation=0;" vertex="1" parent="gt-ZIKND5rcvb39BB-b6-116">
          <mxGeometry y="58" width="140" height="152" as="geometry" />
        </mxCell>
        <mxCell id="gt-ZIKND5rcvb39BB-b6-120" value="course" style="swimlane;fontStyle=1;align=center;verticalAlign=top;childLayout=stackLayout;horizontal=1;startSize=26;horizontalStack=0;resizeParent=1;resizeParentMax=0;resizeLast=0;collapsible=1;marginBottom=0;whiteSpace=wrap;html=1;rotation=0;arcSize=10;" vertex="1" parent="1">
          <mxGeometry x="240" y="490" width="190" height="220" as="geometry" />
        </mxCell>
        <mxCell id="gt-ZIKND5rcvb39BB-b6-121" value="&lt;div&gt;- id: int&lt;/div&gt;&lt;div&gt;- name: String&lt;/div&gt;&lt;div&gt;- description: String&lt;/div&gt;&lt;div&gt;- studentList: List&amp;lt;Student&amp;gt;&lt;/div&gt;" style="text;strokeColor=none;fillColor=none;align=left;verticalAlign=top;spacingLeft=4;spacingRight=4;overflow=hidden;rotatable=0;points=[[0,0.5],[1,0.5]];portConstraint=eastwest;whiteSpace=wrap;html=1;rotation=0;" vertex="1" parent="gt-ZIKND5rcvb39BB-b6-120">
          <mxGeometry y="26" width="190" height="84" as="geometry" />
        </mxCell>
        <mxCell id="gt-ZIKND5rcvb39BB-b6-122" value="" style="line;strokeWidth=1;fillColor=none;align=left;verticalAlign=middle;spacingTop=-1;spacingLeft=3;spacingRight=3;rotatable=0;labelPosition=right;points=[];portConstraint=eastwest;strokeColor=inherit;rotation=0;" vertex="1" parent="gt-ZIKND5rcvb39BB-b6-120">
          <mxGeometry y="110" width="190" height="8" as="geometry" />
        </mxCell>
        <mxCell id="gt-ZIKND5rcvb39BB-b6-123" value="&lt;div&gt;&lt;div&gt;+addListStudents()&lt;/div&gt;&lt;div&gt;+addStudent()&lt;/div&gt;&lt;div&gt;+deleteStudent()&lt;/div&gt;&lt;div&gt;+createCourse()&lt;/div&gt;&lt;div&gt;+updateCourse()&lt;/div&gt;&lt;div&gt;+deleteCourse()&lt;/div&gt;&lt;/div&gt;" style="text;strokeColor=none;fillColor=none;align=left;verticalAlign=top;spacingLeft=4;spacingRight=4;overflow=hidden;rotatable=0;points=[[0,0.5],[1,0.5]];portConstraint=eastwest;whiteSpace=wrap;html=1;rotation=0;" vertex="1" parent="gt-ZIKND5rcvb39BB-b6-120">
          <mxGeometry y="118" width="190" height="102" as="geometry" />
        </mxCell>
        <mxCell id="gt-ZIKND5rcvb39BB-b6-124" value="student" style="swimlane;fontStyle=1;align=center;verticalAlign=top;childLayout=stackLayout;horizontal=1;startSize=26;horizontalStack=0;resizeParent=1;resizeParentMax=0;resizeLast=0;collapsible=1;marginBottom=0;whiteSpace=wrap;html=1;rotation=0;arcSize=10;" vertex="1" parent="1">
          <mxGeometry x="1050" y="510" width="190" height="230" as="geometry" />
        </mxCell>
        <mxCell id="gt-ZIKND5rcvb39BB-b6-125" value="&lt;div&gt;- firstname: String&lt;/div&gt;&lt;div&gt;- lastname: String&lt;/div&gt;&lt;div&gt;- document: String&lt;/div&gt;&lt;div&gt;- parent: String&lt;/div&gt;" style="text;strokeColor=none;fillColor=none;align=left;verticalAlign=top;spacingLeft=4;spacingRight=4;overflow=hidden;rotatable=0;points=[[0,0.5],[1,0.5]];portConstraint=eastwest;whiteSpace=wrap;html=1;rotation=0;" vertex="1" parent="gt-ZIKND5rcvb39BB-b6-124">
          <mxGeometry y="26" width="190" height="84" as="geometry" />
        </mxCell>
        <mxCell id="gt-ZIKND5rcvb39BB-b6-126" value="" style="line;strokeWidth=1;fillColor=none;align=left;verticalAlign=middle;spacingTop=-1;spacingLeft=3;spacingRight=3;rotatable=0;labelPosition=right;points=[];portConstraint=eastwest;strokeColor=inherit;rotation=0;" vertex="1" parent="gt-ZIKND5rcvb39BB-b6-124">
          <mxGeometry y="110" width="190" height="8" as="geometry" />
        </mxCell>
        <mxCell id="gt-ZIKND5rcvb39BB-b6-127" value="&lt;div&gt;+ checkIn()&lt;/div&gt;&lt;div&gt;+ checkOut()&lt;/div&gt;&lt;div&gt;+ viewAttendance()&lt;/div&gt;&lt;div&gt;+ addListStudents()&lt;/div&gt;&lt;div&gt;+ addStudent()&lt;/div&gt;&lt;div&gt;+ removeStudent()&lt;/div&gt;" style="text;strokeColor=none;fillColor=none;align=left;verticalAlign=top;spacingLeft=4;spacingRight=4;overflow=hidden;rotatable=0;points=[[0,0.5],[1,0.5]];portConstraint=eastwest;whiteSpace=wrap;html=1;rotation=0;" vertex="1" parent="gt-ZIKND5rcvb39BB-b6-124">
          <mxGeometry y="118" width="190" height="112" as="geometry" />
        </mxCell>
        <mxCell id="gt-ZIKND5rcvb39BB-b6-128" value="father" style="swimlane;fontStyle=1;align=center;verticalAlign=top;childLayout=stackLayout;horizontal=1;startSize=26;horizontalStack=0;resizeParent=1;resizeParentMax=0;resizeLast=0;collapsible=1;marginBottom=0;whiteSpace=wrap;html=1;rotation=0;arcSize=10;" vertex="1" parent="1">
          <mxGeometry x="740" y="820" width="230" height="190" as="geometry" />
        </mxCell>
        <mxCell id="gt-ZIKND5rcvb39BB-b6-129" value="&lt;div&gt;- first name: String&lt;/div&gt;&lt;div&gt;- last name: String&lt;/div&gt;&lt;div&gt;- email: String&lt;/div&gt;&lt;div&gt;- phone number: String&lt;/div&gt;" style="text;strokeColor=none;fillColor=none;align=left;verticalAlign=top;spacingLeft=4;spacingRight=4;overflow=hidden;rotatable=0;points=[[0,0.5],[1,0.5]];portConstraint=eastwest;whiteSpace=wrap;html=1;rotation=0;" vertex="1" parent="gt-ZIKND5rcvb39BB-b6-128">
          <mxGeometry y="26" width="230" height="84" as="geometry" />
        </mxCell>
        <mxCell id="gt-ZIKND5rcvb39BB-b6-130" value="" style="line;strokeWidth=1;fillColor=none;align=left;verticalAlign=middle;spacingTop=-1;spacingLeft=3;spacingRight=3;rotatable=0;labelPosition=right;points=[];portConstraint=eastwest;strokeColor=inherit;rotation=0;" vertex="1" parent="gt-ZIKND5rcvb39BB-b6-128">
          <mxGeometry y="110" width="230" height="8" as="geometry" />
        </mxCell>
        <mxCell id="gt-ZIKND5rcvb39BB-b6-131" value="&lt;div&gt;+ receiveNotification(message: String)&lt;/div&gt;&lt;div&gt;+addParent()&lt;/div&gt;&lt;div&gt;+removeParent()&lt;/div&gt;&lt;div&gt;+notifyParent()&lt;/div&gt;" style="text;strokeColor=none;fillColor=none;align=left;verticalAlign=top;spacingLeft=4;spacingRight=4;overflow=hidden;rotatable=0;points=[[0,0.5],[1,0.5]];portConstraint=eastwest;whiteSpace=wrap;html=1;rotation=0;" vertex="1" parent="gt-ZIKND5rcvb39BB-b6-128">
          <mxGeometry y="118" width="230" height="72" as="geometry" />
        </mxCell>
        <mxCell id="gt-ZIKND5rcvb39BB-b6-132" value="attendance" style="swimlane;fontStyle=1;align=center;verticalAlign=top;childLayout=stackLayout;horizontal=1;startSize=26;horizontalStack=0;resizeParent=1;resizeParentMax=0;resizeLast=0;collapsible=1;marginBottom=0;whiteSpace=wrap;html=1;rotation=0;arcSize=10;" vertex="1" parent="1">
          <mxGeometry x="1370" y="840" width="230" height="250" as="geometry" />
        </mxCell>
        <mxCell id="gt-ZIKND5rcvb39BB-b6-133" value="&lt;div&gt;- date: Date&lt;/div&gt;&lt;div&gt;- timeIn: Time&lt;/div&gt;&lt;div&gt;- timeOut: Time&lt;/div&gt;&lt;div&gt;- student: String&lt;/div&gt;" style="text;strokeColor=none;fillColor=none;align=left;verticalAlign=top;spacingLeft=4;spacingRight=4;overflow=hidden;rotatable=0;points=[[0,0.5],[1,0.5]];portConstraint=eastwest;whiteSpace=wrap;html=1;rotation=0;" vertex="1" parent="gt-ZIKND5rcvb39BB-b6-132">
          <mxGeometry y="26" width="230" height="84" as="geometry" />
        </mxCell>
        <mxCell id="gt-ZIKND5rcvb39BB-b6-134" value="" style="line;strokeWidth=1;fillColor=none;align=left;verticalAlign=middle;spacingTop=-1;spacingLeft=3;spacingRight=3;rotatable=0;labelPosition=right;points=[];portConstraint=eastwest;strokeColor=inherit;rotation=0;" vertex="1" parent="gt-ZIKND5rcvb39BB-b6-132">
          <mxGeometry y="110" width="230" height="8" as="geometry" />
        </mxCell>
        <mxCell id="gt-ZIKND5rcvb39BB-b6-135" value="&lt;div&gt;+ registerIn()&lt;/div&gt;&lt;div&gt;+ registerOut()&lt;/div&gt;&lt;div&gt;+ notifyParent()&lt;/div&gt;&lt;div&gt;+ receiveNotifications(message:String)&lt;/div&gt;&lt;div&gt;+ viewAttendance()&lt;/div&gt;" style="text;strokeColor=none;fillColor=none;align=left;verticalAlign=top;spacingLeft=4;spacingRight=4;overflow=hidden;rotatable=0;points=[[0,0.5],[1,0.5]];portConstraint=eastwest;whiteSpace=wrap;html=1;rotation=0;" vertex="1" parent="gt-ZIKND5rcvb39BB-b6-132">
          <mxGeometry y="118" width="230" height="132" as="geometry" />
        </mxCell>
        <mxCell id="gt-ZIKND5rcvb39BB-b6-136" style="edgeStyle=orthogonalEdgeStyle;rounded=0;orthogonalLoop=1;jettySize=auto;html=1;entryX=1.021;entryY=0.247;entryDx=0;entryDy=0;entryPerimeter=0;exitX=-0.008;exitY=0.351;exitDx=0;exitDy=0;exitPerimeter=0;" edge="1" parent="1" source="gt-ZIKND5rcvb39BB-b6-109" target="gt-ZIKND5rcvb39BB-b6-115">
          <mxGeometry relative="1" as="geometry">
            <mxPoint x="440" y="120" as="sourcePoint" />
          </mxGeometry>
        </mxCell>
        <mxCell id="gt-ZIKND5rcvb39BB-b6-138" value="" style="endArrow=none;html=1;rounded=0;" edge="1" parent="1" source="gt-ZIKND5rcvb39BB-b6-120" target="gt-ZIKND5rcvb39BB-b6-115">
          <mxGeometry width="50" height="50" relative="1" as="geometry">
            <mxPoint x="650" y="550" as="sourcePoint" />
            <mxPoint x="700" y="500" as="targetPoint" />
          </mxGeometry>
        </mxCell>
        <mxCell id="gt-ZIKND5rcvb39BB-b6-139" value="" style="line;strokeWidth=1;fillColor=none;align=left;verticalAlign=middle;spacingTop=-1;spacingLeft=3;spacingRight=3;rotatable=0;labelPosition=right;points=[];portConstraint=eastwest;strokeColor=inherit;" vertex="1" parent="1">
          <mxGeometry x="400" y="370" width="730" height="8" as="geometry" />
        </mxCell>
        <mxCell id="gt-ZIKND5rcvb39BB-b6-140" value="1" style="text;strokeColor=none;fillColor=none;align=left;verticalAlign=middle;spacingTop=-1;spacingLeft=4;spacingRight=4;rotatable=0;labelPosition=right;points=[];portConstraint=eastwest;" vertex="1" parent="1">
          <mxGeometry x="400" y="280" width="20" height="14" as="geometry" />
        </mxCell>
        <mxCell id="gt-ZIKND5rcvb39BB-b6-141" value="1" style="text;strokeColor=none;fillColor=none;align=left;verticalAlign=middle;spacingTop=-1;spacingLeft=4;spacingRight=4;rotatable=0;labelPosition=right;points=[];portConstraint=eastwest;" vertex="1" parent="1">
          <mxGeometry x="404" y="378" width="20" height="14" as="geometry" />
        </mxCell>
        <mxCell id="gt-ZIKND5rcvb39BB-b6-142" value="1" style="text;strokeColor=none;fillColor=none;align=left;verticalAlign=middle;spacingTop=-1;spacingLeft=4;spacingRight=4;rotatable=0;labelPosition=right;points=[];portConstraint=eastwest;" vertex="1" parent="1">
          <mxGeometry x="290" y="420" width="20" height="14" as="geometry" />
        </mxCell>
        <mxCell id="gt-ZIKND5rcvb39BB-b6-143" value="1..*" style="text;strokeColor=none;fillColor=none;align=left;verticalAlign=middle;spacingTop=-1;spacingLeft=4;spacingRight=4;rotatable=0;labelPosition=right;points=[];portConstraint=eastwest;" vertex="1" parent="1">
          <mxGeometry x="620" y="90" width="20" height="14" as="geometry" />
        </mxCell>
        <mxCell id="gt-ZIKND5rcvb39BB-b6-144" value="1..*" style="text;strokeColor=none;fillColor=none;align=left;verticalAlign=middle;spacingTop=-1;spacingLeft=4;spacingRight=4;rotatable=0;labelPosition=right;points=[];portConstraint=eastwest;" vertex="1" parent="1">
          <mxGeometry x="800" y="90" width="20" height="14" as="geometry" />
        </mxCell>
        <mxCell id="gt-ZIKND5rcvb39BB-b6-145" value="1..*" style="text;strokeColor=none;fillColor=none;align=left;verticalAlign=middle;spacingTop=-1;spacingLeft=4;spacingRight=4;rotatable=0;labelPosition=right;points=[];portConstraint=eastwest;" vertex="1" parent="1">
          <mxGeometry x="1080" y="266" width="20" height="14" as="geometry" />
        </mxCell>
        <mxCell id="gt-ZIKND5rcvb39BB-b6-146" value="1..*" style="text;strokeColor=none;fillColor=none;align=left;verticalAlign=middle;spacingTop=-1;spacingLeft=4;spacingRight=4;rotatable=0;labelPosition=right;points=[];portConstraint=eastwest;" vertex="1" parent="1">
          <mxGeometry x="1080" y="356" width="20" height="14" as="geometry" />
        </mxCell>
        <mxCell id="gt-ZIKND5rcvb39BB-b6-147" value="1..*" style="text;strokeColor=none;fillColor=none;align=left;verticalAlign=middle;spacingTop=-1;spacingLeft=4;spacingRight=4;rotatable=0;labelPosition=right;points=[];portConstraint=eastwest;" vertex="1" parent="1">
          <mxGeometry x="1080" y="406" width="20" height="14" as="geometry" />
        </mxCell>
        <mxCell id="gt-ZIKND5rcvb39BB-b6-148" value="1..*" style="text;strokeColor=none;fillColor=none;align=left;verticalAlign=middle;spacingTop=-1;spacingLeft=4;spacingRight=4;rotatable=0;labelPosition=right;points=[];portConstraint=eastwest;" vertex="1" parent="1">
          <mxGeometry x="414" y="470" width="20" height="14" as="geometry" />
        </mxCell>
        <mxCell id="gt-ZIKND5rcvb39BB-b6-149" value="1..*" style="text;strokeColor=none;fillColor=none;align=left;verticalAlign=middle;spacingTop=-1;spacingLeft=4;spacingRight=4;rotatable=0;labelPosition=right;points=[];portConstraint=eastwest;" vertex="1" parent="1">
          <mxGeometry x="430" y="540" width="20" height="14" as="geometry" />
        </mxCell>
        <mxCell id="gt-ZIKND5rcvb39BB-b6-150" value="1..*" style="text;strokeColor=none;fillColor=none;align=left;verticalAlign=middle;spacingTop=-1;spacingLeft=4;spacingRight=4;rotatable=0;labelPosition=right;points=[];portConstraint=eastwest;" vertex="1" parent="1">
          <mxGeometry x="820" y="800" width="20" height="14" as="geometry" />
        </mxCell>
        <mxCell id="gt-ZIKND5rcvb39BB-b6-151" value="1..*" style="text;strokeColor=none;fillColor=none;align=left;verticalAlign=middle;spacingTop=-1;spacingLeft=4;spacingRight=4;rotatable=0;labelPosition=right;points=[];portConstraint=eastwest;" vertex="1" parent="1">
          <mxGeometry x="970" y="670" width="20" height="14" as="geometry" />
        </mxCell>
        <mxCell id="gt-ZIKND5rcvb39BB-b6-152" value="1..*" style="text;strokeColor=none;fillColor=none;align=left;verticalAlign=middle;spacingTop=-1;spacingLeft=4;spacingRight=4;rotatable=0;labelPosition=right;points=[];portConstraint=eastwest;" vertex="1" parent="1">
          <mxGeometry x="1240" y="696" width="20" height="14" as="geometry" />
        </mxCell>
        <mxCell id="gt-ZIKND5rcvb39BB-b6-153" value="1..*" style="text;strokeColor=none;fillColor=none;align=left;verticalAlign=middle;spacingTop=-1;spacingLeft=4;spacingRight=4;rotatable=0;labelPosition=right;points=[];portConstraint=eastwest;" vertex="1" parent="1">
          <mxGeometry x="1510" y="814" width="20" height="14" as="geometry" />
        </mxCell>
        <mxCell id="gt-ZIKND5rcvb39BB-b6-154" value="1..*" style="text;strokeColor=none;fillColor=none;align=left;verticalAlign=middle;spacingTop=-1;spacingLeft=4;spacingRight=4;rotatable=0;labelPosition=right;points=[];portConstraint=eastwest;" vertex="1" parent="1">
          <mxGeometry x="1000" y="540" width="20" height="14" as="geometry" />
        </mxCell>
        <mxCell id="gt-ZIKND5rcvb39BB-b6-155" value="1..*" style="text;strokeColor=none;fillColor=none;align=left;verticalAlign=middle;spacingTop=-1;spacingLeft=4;spacingRight=4;rotatable=0;labelPosition=right;points=[];portConstraint=eastwest;" vertex="1" parent="1">
          <mxGeometry x="280" y="470" width="20" height="14" as="geometry" />
        </mxCell>
        <mxCell id="gt-ZIKND5rcvb39BB-b6-156" value="" style="endArrow=diamondThin;endFill=1;endSize=24;html=1;rounded=0;entryX=0.021;entryY=0.842;entryDx=0;entryDy=0;entryPerimeter=0;exitX=0.995;exitY=0.055;exitDx=0;exitDy=0;exitPerimeter=0;" edge="1" parent="1" source="gt-ZIKND5rcvb39BB-b6-120" target="gt-ZIKND5rcvb39BB-b6-119">
          <mxGeometry width="160" relative="1" as="geometry">
            <mxPoint x="830" y="480" as="sourcePoint" />
            <mxPoint x="750" y="490" as="targetPoint" />
            <Array as="points">
              <mxPoint x="780" y="460" />
            </Array>
          </mxGeometry>
        </mxCell>
        <mxCell id="gt-ZIKND5rcvb39BB-b6-157" value="" style="endArrow=diamondThin;endFill=1;endSize=24;html=1;rounded=0;entryX=0;entryY=0.087;entryDx=0;entryDy=0;entryPerimeter=0;exitX=1.016;exitY=0.167;exitDx=0;exitDy=0;exitPerimeter=0;" edge="1" parent="1" source="gt-ZIKND5rcvb39BB-b6-121" target="gt-ZIKND5rcvb39BB-b6-124">
          <mxGeometry width="160" relative="1" as="geometry">
            <mxPoint x="810" y="580" as="sourcePoint" />
            <mxPoint x="750" y="640" as="targetPoint" />
          </mxGeometry>
        </mxCell>
        <mxCell id="gt-ZIKND5rcvb39BB-b6-158" value="" style="endArrow=diamondThin;endFill=1;endSize=24;html=1;rounded=0;entryX=0.587;entryY=-0.021;entryDx=0;entryDy=0;entryPerimeter=0;exitX=0;exitY=0.375;exitDx=0;exitDy=0;exitPerimeter=0;" edge="1" parent="1" source="gt-ZIKND5rcvb39BB-b6-127" target="gt-ZIKND5rcvb39BB-b6-128">
          <mxGeometry width="160" relative="1" as="geometry">
            <mxPoint x="870" y="710" as="sourcePoint" />
            <mxPoint x="960" y="700" as="targetPoint" />
          </mxGeometry>
        </mxCell>
        <mxCell id="gt-ZIKND5rcvb39BB-b6-159" value="" style="endArrow=diamondThin;endFill=0;endSize=24;html=1;rounded=0;exitX=1.005;exitY=0.773;exitDx=0;exitDy=0;exitPerimeter=0;entryX=0.632;entryY=-0.005;entryDx=0;entryDy=0;entryPerimeter=0;" edge="1" parent="1" source="gt-ZIKND5rcvb39BB-b6-127" target="gt-ZIKND5rcvb39BB-b6-132">
          <mxGeometry width="160" relative="1" as="geometry">
            <mxPoint x="1270" y="770" as="sourcePoint" />
            <mxPoint x="1430" y="770" as="targetPoint" />
          </mxGeometry>
        </mxCell>
        <mxCell id="gt-ZIKND5rcvb39BB-b6-160" style="edgeStyle=orthogonalEdgeStyle;rounded=0;orthogonalLoop=1;jettySize=auto;html=1;entryX=0.002;entryY=0.083;entryDx=0;entryDy=0;entryPerimeter=0;exitX=1.016;exitY=0.387;exitDx=0;exitDy=0;exitPerimeter=0;" edge="1" parent="1" source="gt-ZIKND5rcvb39BB-b6-109" target="gt-ZIKND5rcvb39BB-b6-116">
          <mxGeometry relative="1" as="geometry">
            <mxPoint x="1156" y="79" as="sourcePoint" />
            <mxPoint x="890" y="308" as="targetPoint" />
          </mxGeometry>
        </mxCell>
        <mxCell id="gt-ZIKND5rcvb39BB-b6-161" value="Role" style="swimlane;fontStyle=1;align=center;verticalAlign=top;childLayout=stackLayout;horizontal=1;startSize=26;horizontalStack=0;resizeParent=1;resizeParentMax=0;resizeLast=0;collapsible=1;marginBottom=0;whiteSpace=wrap;html=1;" vertex="1" parent="1">
          <mxGeometry x="1150" y="20" width="160" height="148" as="geometry" />
        </mxCell>
        <mxCell id="gt-ZIKND5rcvb39BB-b6-162" value="-name:string&lt;div&gt;- id: int&lt;/div&gt;" style="text;strokeColor=none;fillColor=none;align=left;verticalAlign=top;spacingLeft=4;spacingRight=4;overflow=hidden;rotatable=0;points=[[0,0.5],[1,0.5]];portConstraint=eastwest;whiteSpace=wrap;html=1;" vertex="1" parent="gt-ZIKND5rcvb39BB-b6-161">
          <mxGeometry y="26" width="160" height="34" as="geometry" />
        </mxCell>
        <mxCell id="gt-ZIKND5rcvb39BB-b6-163" value="" style="line;strokeWidth=1;fillColor=none;align=left;verticalAlign=middle;spacingTop=-1;spacingLeft=3;spacingRight=3;rotatable=0;labelPosition=right;points=[];portConstraint=eastwest;strokeColor=inherit;" vertex="1" parent="gt-ZIKND5rcvb39BB-b6-161">
          <mxGeometry y="60" width="160" height="8" as="geometry" />
        </mxCell>
        <mxCell id="gt-ZIKND5rcvb39BB-b6-164" value="&lt;div&gt;+selectRole()&lt;/div&gt;&lt;div&gt;+deleteRole&lt;/div&gt;&lt;div&gt;+updateRole&lt;/div&gt;&lt;div&gt;+createRole&lt;/div&gt;" style="text;strokeColor=none;fillColor=none;align=left;verticalAlign=top;spacingLeft=4;spacingRight=4;overflow=hidden;rotatable=0;points=[[0,0.5],[1,0.5]];portConstraint=eastwest;whiteSpace=wrap;html=1;" vertex="1" parent="gt-ZIKND5rcvb39BB-b6-161">
          <mxGeometry y="68" width="160" height="80" as="geometry" />
        </mxCell>
        <mxCell id="gt-ZIKND5rcvb39BB-b6-165" value="" style="endArrow=none;html=1;edgeStyle=orthogonalEdgeStyle;rounded=0;entryX=0;entryY=0.25;entryDx=0;entryDy=0;exitX=1;exitY=0.076;exitDx=0;exitDy=0;exitPerimeter=0;" edge="1" parent="1" source="gt-ZIKND5rcvb39BB-b6-108" target="gt-ZIKND5rcvb39BB-b6-161">
          <mxGeometry relative="1" as="geometry">
            <mxPoint x="900" y="40" as="sourcePoint" />
            <mxPoint x="1060" y="40" as="targetPoint" />
          </mxGeometry>
        </mxCell>
      </root>
    </mxGraphModel>
  </diagram>
</mxfile>
